<svg xmlns="http://www.w3.org/2000/svg" viewBox="0 0 1417.32 850.39"><defs><style>.cls-1{fill:#1d1d1b;}</style></defs><g id="Layer_1" data-name="Layer 1"><path class="cls-1" d="M208.12,586l4,.84L198.15,631H72.08v-4.44h6.13q10.32,0,14.76-6.73,2.52-3.84,2.53-17.77V497q0-15.24-3.37-19.09-4.68-5.28-13.92-5.28H72.08V468.2H145.8v4.44q-13-.12-18.19,2.4t-7.14,6.36q-1.92,3.86-1.92,18.37v102.3q0,10,1.92,13.69a8.58,8.58,0,0,0,4.44,3.72q3,1.2,18.73,1.2h11.89q18.74,0,26.29-2.76a34.18,34.18,0,0,0,13.81-9.78Q201.87,601.11,208.12,586Z"/><path class="cls-1" d="M307.29,464.47q31.71,0,54.94,24.08t23.23,60.09q0,37.11-23.41,61.6t-56.68,24.49q-33.62,0-56.49-23.89T226,549q0-38.78,26.41-63.27Q275.35,464.48,307.29,464.47ZM305,473.24q-21.84,0-35.06,16.21-16.44,20.18-16.45,59.07,0,39.87,17.05,61.36,13.09,16.32,34.58,16.33,22.94,0,37.88-17.89T358,551.88q0-41.78-16.45-62.31Q328.31,473.24,305,473.24Z"/><path class="cls-1" d="M543,464.47l3.72,55.36H543q-7.46-24.86-21.25-35.78T488.6,473.12a54,54,0,0,0-29.3,8.22q-13.08,8.24-20.59,26.24t-7.51,44.78q0,22.1,7.09,38.31a53.09,53.09,0,0,0,21.31,24.85q14.23,8.64,32.48,8.64,15.84,0,28-6.78t26.66-27l3.72,2.4q-12.24,21.74-28.57,31.82t-38.79,10.08q-40.45,0-62.67-30-16.57-22.32-16.57-52.59a93.31,93.31,0,0,1,10.93-44.78,79.09,79.09,0,0,1,30.07-31.64,81.33,81.33,0,0,1,41.85-11.23,76.77,76.77,0,0,1,34.82,8.65q5,2.64,7.2,2.64a7.92,7.92,0,0,0,5.64-2.28,18.79,18.79,0,0,0,4.45-9Z"/><path class="cls-1" d="M632.44,540.72l60,59.67q14.77,14.77,25.22,20.11a53.79,53.79,0,0,0,20.89,6.07V631H661.13v-4.44q7,0,10-2.35c2.05-1.56,3.05-3.3,3.05-5.22a11.25,11.25,0,0,0-1.13-5.16q-1.14-2.28-7.5-8.53l-56.19-55.59v52.47q0,12.38,1.56,16.33a10.74,10.74,0,0,0,5,5.16,22,22,0,0,0,10.93,2.89h5.52V631H563v-4.44h5.76q10.1,0,14.65-5.89,2.88-3.84,2.88-18.49V497q0-12.36-1.56-16.45a11,11,0,0,0-4.92-5,22.78,22.78,0,0,0-11.05-2.88H563V468.2h69.4v4.44h-5.52A23.3,23.3,0,0,0,616,475.4a10.41,10.41,0,0,0-5.16,5.76Q609.39,485,609.39,497v49.83q2.4-2.28,16.44-15.25Q661.5,498.93,668.94,488c2.16-3.2,3.24-6,3.24-8.41a6.2,6.2,0,0,0-2.52-4.86q-2.52-2.1-8.53-2.1h-3.72V468.2H717.2v4.44a35.57,35.57,0,0,0-9.61,1.44,49.55,49.55,0,0,0-10.57,5.1,103.59,103.59,0,0,0-15.36,12.19Q679,493.77,657.29,516Z"/><path class="cls-1" d="M849.27,464.47v56.32h-4.44q-2.16-16.21-7.75-25.82a40.32,40.32,0,0,0-15.91-15.25,44,44,0,0,0-21.37-5.64q-12.48,0-20.65,7.62T771,499.05a20.55,20.55,0,0,0,5.16,13.57q7.44,9,35.42,24,22.81,12.24,31.16,18.79a45.8,45.8,0,0,1,12.84,15.42,40.59,40.59,0,0,1,4.51,18.62q0,18.48-14.35,31.87t-36.92,13.39a78.23,78.23,0,0,1-13.33-1.08q-3.72-.6-15.43-4.38t-14.83-3.78a6.29,6.29,0,0,0-4.74,1.8q-1.74,1.8-2.58,7.44h-4.44V578.9h4.44q3.12,17.54,8.4,26.23t16.15,14.47a50.13,50.13,0,0,0,23.84,5.77q15,0,23.71-7.93t8.7-18.73a25.45,25.45,0,0,0-3.3-12.13,36.12,36.12,0,0,0-10.26-11.4q-4.68-3.6-25.58-15.31T769.85,541.2a50.27,50.27,0,0,1-13.39-15.37,38.14,38.14,0,0,1-4.56-18.49q0-17.54,13.44-30.2t34.22-12.67q13,0,27.5,6.37,6.72,3,9.48,3a7.17,7.17,0,0,0,5.11-1.86q2-1.86,3.18-7.51Z"/><path class="cls-1" d="M1014.24,586l4,.84L1004.28,631H878.21v-4.44h6.12q10.32,0,14.77-6.73,2.52-3.84,2.52-17.77V497q0-15.24-3.36-19.09-4.68-5.28-13.93-5.28h-6.12V468.2h73.72v4.44q-13-.12-18.19,2.4t-7.15,6.36q-1.92,3.86-1.92,18.37v102.3q0,10,1.92,13.69a8.64,8.64,0,0,0,4.45,3.72q3,1.2,18.73,1.2h11.88q18.74,0,26.3-2.76a34.32,34.32,0,0,0,13.81-9.78Q1008,601.11,1014.24,586Z"/><path class="cls-1" d="M1074.88,477.08v64.36h35.78q13.92,0,18.61-4.2,6.24-5.54,7-19.46h4.45v56.68h-4.45q-1.68-11.9-3.36-15.25a15.09,15.09,0,0,0-7.08-6.61q-4.92-2.4-15.13-2.4h-35.78v53.67q0,10.82,1,13.15a7.55,7.55,0,0,0,3.36,3.72q2.4,1.38,9.13,1.38h27.61q13.82,0,20-1.92a29.85,29.85,0,0,0,12-7.56q7.44-7.44,15.25-22.45h4.8L1154,631H1028.53v-4.44h5.77a22.72,22.72,0,0,0,10.92-2.77,10.1,10.1,0,0,0,5.22-5.76q1.38-3.84,1.39-15.73V496.53q0-15.48-3.13-19.09-4.32-4.8-14.4-4.8h-5.77V468.2H1154l1.8,35.66h-4.68q-2.52-12.86-5.58-17.65a19.16,19.16,0,0,0-9.07-7.33q-4.8-1.8-16.93-1.8Z"/><path class="cls-1" d="M1290.88,468.2h56.79v4.44h-3.12q-3.12,0-9.12,2.76a35.41,35.41,0,0,0-10.93,7.93q-4.92,5.16-12.13,16.8L1273.11,562v40.82q0,15,3.36,18.73,4.56,5.06,14.41,5.05h5.28V631H1227v-4.44h5.77q10.32,0,14.65-6.25,2.64-3.84,2.64-17.53V564.25l-44.67-68.2q-7.92-12-10.74-15t-11.71-7.2a16,16,0,0,0-7-1.2V468.2h69.63v4.44H1242a21,21,0,0,0-10.38,2.64,8.53,8.53,0,0,0-4.75,7.93q0,4.32,7.33,15.6l34,52.47,31.94-50.18q7.2-11.3,7.2-16.81a10.67,10.67,0,0,0-1.74-6,11.64,11.64,0,0,0-5-4.14q-3.25-1.5-9.73-1.5Z"/><path class="cls-1" d="M431.89,757.62l2.64.56-9.29,29.46H341.19v-3h4.09q6.89,0,9.84-4.49,1.68-2.55,1.68-11.84v-70q0-10.15-2.24-12.73-3.12-3.51-9.28-3.52h-4.09v-3h49.15v3c-5.76,0-9.8.48-12.13,1.6a9.8,9.8,0,0,0-4.76,4.24q-1.27,2.58-1.28,12.25v68.2q0,6.66,1.28,9.12a5.67,5.67,0,0,0,3,2.48q2,.81,12.49.8h7.93c8.32,0,14.16-.6,17.53-1.84a22.73,22.73,0,0,0,9.2-6.52Q427.72,767.71,431.89,757.62Z"/><path class="cls-1" d="M498,676.61q21.13,0,36.62,16t15.49,40.07q0,24.74-15.61,41.06t-37.78,16.33q-22.41,0-37.66-15.93T443.81,733q0-25.85,17.61-42.19A52,52,0,0,1,498,676.61Zm-1.52,5.85q-14.57,0-23.37,10.8-11,13.46-11,39.39,0,26.6,11.37,40.9,8.72,10.89,23.05,10.89,15.3,0,25.26-11.93t10-37.62q0-27.85-11-41.55Q512,682.48,496.48,682.46Z"/><path class="cls-1" d="M554.27,679.1h29.46l66.36,81.4V697.91q0-10-2.24-12.49-3-3.36-9.37-3.36h-3.76v-3H672.5v3h-3.84c-4.59,0-7.85,1.4-9.77,4.16-1.17,1.72-1.76,5.6-1.76,11.69V789.4h-2.88L582.69,702v66.84q0,10,2.16,12.48,3,3.36,9.37,3.37h3.84v3H560.28v-3H564q7,0,9.85-4.17,1.75-2.55,1.76-11.68V693.34a50.23,50.23,0,0,0-7.17-7.28,26.91,26.91,0,0,0-7.16-3.28,25.53,25.53,0,0,0-7.05-.72Z"/><path class="cls-1" d="M677.61,787.64v-3h4.09q6.87,0,9.76-4.41,1.77-2.64,1.76-11.84V698.31q0-10.15-2.24-12.73-3.12-3.51-9.28-3.52h-4.09v-3H721.8q24.35,0,37,5.52A44,44,0,0,1,779.23,703q7.71,12.9,7.73,29.78,0,22.65-13.77,37.86-15.47,17-47.07,17Zm31-7.85a81.53,81.53,0,0,0,17,2.24q18.58,0,30.82-13t12.25-35.38q0-22.49-12.25-35.46t-31.46-13a68.39,68.39,0,0,0-16.41,2.32Z"/><path class="cls-1" d="M853.15,676.61q21.14,0,36.62,16t15.49,40.07q0,24.74-15.61,41.06t-37.78,16.33q-22.43,0-37.66-15.93T799,733q0-25.85,17.61-42.19A52,52,0,0,1,853.15,676.61Zm-1.52,5.85c-9.7,0-17.51,3.6-23.37,10.8q-11,13.46-11,39.39,0,26.6,11.37,40.9,8.73,10.89,23.05,10.89,15.28,0,25.26-11.93t10-37.62q0-27.85-11-41.55Q867.17,682.48,851.63,682.46Z"/><path class="cls-1" d="M909.42,679.1h29.46l66.36,81.4V697.91q0-10-2.24-12.49-3-3.36-9.37-3.36h-3.76v-3h37.78v3h-3.84c-4.58,0-7.85,1.4-9.77,4.16-1.18,1.72-1.76,5.6-1.76,11.69V789.4h-2.88L937.84,702v66.84q0,10,2.16,12.48,3,3.36,9.37,3.37h3.84v3H915.43v-3h3.76q7,0,9.85-4.17,1.77-2.55,1.76-11.68V693.34a49.72,49.72,0,0,0-7.17-7.28,26.91,26.91,0,0,0-7.16-3.28,25.53,25.53,0,0,0-7.05-.72Z"/><path class="cls-1" d="M651.62,107.84h8.93q13.49,0,20.32,7.71,4.9,5.6,4.91,27.85V274.58h12.84c8,0,14.93-.28,20.8-.8V147.43q0-21.19,2.8-26.8t10.43-9.29q7.62-3.68,26.53-3.5v-6.48H651.62Z"/><path class="cls-1" d="M850.09,273.19q-9.11,22.08-18.21,32.32t-20.15,14.28q-11,4-38.36,4H756q-22.95,0-27.32-1.75a12.59,12.59,0,0,1-6.49-5.43q-2.79-5.43-2.8-20v-2H685.78v2q0,20.32-3.68,25.93-6.48,9.81-21.55,9.81h-8.93v6.48H835.55l20.32-64.46Z"/></g><g id="Layer_2" data-name="Layer 2"><path class="cls-1" d="M775.36,226.48l5.78,1.23-20.32,64.46H576.88v-6.48h8.94q15.06,0,21.54-9.81,3.69-5.61,3.68-25.93V96.69q0-22.25-4.9-27.85-6.84-7.71-20.32-7.71h-8.94V54.65H684.43v6.48q-18.91-.18-26.53,3.5t-10.43,9.29q-2.79,5.6-2.8,26.8V250q0,14.55,2.8,20a12.59,12.59,0,0,0,6.49,5.43q4.38,1.75,27.32,1.75h17.34q27.33,0,38.38-4t20.14-14.28Q766.25,248.56,775.36,226.48Z"/></g></svg>