<svg xmlns="http://www.w3.org/2000/svg" viewBox="0 0 120 120"><defs><style>.cls-1{fill:#ffb81c;}.cls-2{fill:none;stroke:#333332;stroke-linecap:round;stroke-linejoin:round;stroke-width:4px;}</style></defs><g id="Aussie_Amber_Circle" data-name="Aussie Amber Circle"><circle class="cls-1" cx="60" cy="60" r="30.5"/></g><g id="Granite_Grey_Outline" data-name="Granite Grey Outline"><path class="cls-2" d="M90,77A34.51,34.51,0,0,1,27.64,48"/><path class="cls-2" d="M31,41.3A34.51,34.51,0,0,1,92.71,71c-.11.34-.23.67-.35,1"/><circle class="cls-2" cx="60" cy="60" r="24.5"/><polyline class="cls-2" points="58 19 83 19 84 34"/><polyline class="cls-2" points="36 34 37 19 52 19"/><polyline class="cls-2" points="41.5 19 46.27 3 73.73 3 78.5 19"/><line class="cls-2" x1="68.71" y1="9" x2="70" y2="13.32"/><line class="cls-2" x1="49.71" y1="107" x2="51" y2="111.32"/><polyline class="cls-2" points="78.5 101 73.73 117 46.27 117 41.5 101"/><polyline class="cls-2" points="65 101 37 101 36 86"/><polyline class="cls-2" points="84 86 83 101 70 101"/><polyline class="cls-2" points="60 48.5 60 59.5 69 59.5"/><line class="cls-2" x1="60" y1="39.5" x2="60" y2="35.5"/><line class="cls-2" x1="60" y1="84.5" x2="60" y2="80.5"/><line class="cls-2" x1="39.5" y1="60" x2="35.5" y2="60"/><line class="cls-2" x1="84.5" y1="60" x2="80.5" y2="60"/><line class="cls-2" x1="45.5" y1="45.5" x2="42.68" y2="42.68"/><line class="cls-2" x1="77.32" y1="77.32" x2="74.5" y2="74.5"/><line class="cls-2" x1="45.5" y1="74.5" x2="42.68" y2="77.32"/><line class="cls-2" x1="77.32" y1="42.68" x2="74.5" y2="45.5"/></g></svg>