<?xml version="1.0" encoding="UTF-8"?>
<svg width="54px" height="12px" viewBox="0 0 54 12" version="1.1" xmlns="http://www.w3.org/2000/svg" xmlns:xlink="http://www.w3.org/1999/xlink">
    <!-- Generator: Sketch 48.2 (47327) - http://www.bohemiancoding.com/sketch -->
    <title>Logo</title>
    <desc>Created with Sketch.</desc>
    <defs></defs>
    <g id="01-landing" stroke="none" stroke-width="1" fill="none" fill-rule="evenodd" transform="translate(-213.000000, -603.000000)">
        <g id="Logo-/-Klarna-/-Full,-Black" transform="translate(213.000000, 603.000000)">
            <g id="Logo">
                <rect id="Footprint" x="0" y="0" width="54" height="12"></rect>
                <path d="M0,11.7777624 L0,0 L2.69399122,0 L2.69399122,11.7777624 L0,11.7777624 Z M9.4225781,0 C9.4225781,2.5497967 8.43194869,4.92175582 6.66680569,6.68481713 L10.3906017,11.7782373 L7.06317581,11.7782373 L3.01615289,6.24283495 L4.06063371,5.45823646 C5.79275574,4.15674558 6.78622565,2.16741029 6.78622565,0 L9.4225781,0 Z M11.1758856,11.774557 L13.7200397,11.774557 L13.7200397,0.00225561678 L11.1758856,0.00225561678 L11.1758856,11.774557 Z M36.0406836,3.41215461 C35.0697011,3.41215461 34.1507947,3.71452597 33.5364151,4.54874803 L33.5364151,3.63166174 L31.1161785,3.63166174 L31.1161785,11.774557 L33.5661222,11.774557 L33.5661222,7.49517714 C33.5661222,6.25684352 34.3940138,5.65043876 35.3907976,5.65043876 C36.4590677,5.65043876 37.0732106,6.29055906 37.0732106,7.47831937 L37.0732106,11.774557 L39.501022,11.774557 L39.501022,6.59601706 C39.501022,4.70094281 37.9988633,3.41215461 36.0406836,3.41215461 M21.4097856,4.15211563 C20.7230913,3.68223504 19.8942529,3.40610006 19.0003193,3.40610006 C16.6344075,3.40610006 14.7164685,5.32990374 14.7164685,7.70305003 C14.7164685,10.0761963 16.6344075,12 19.0003193,12 C19.8942529,12 20.7230913,11.723865 21.4097856,11.2541031 L21.4097856,11.774557 L23.8405559,11.774557 L23.8405559,3.63118687 L21.4097856,3.63118687 L21.4097856,4.15211563 Z M19.1991553,9.79828059 C17.9828234,9.79828059 16.9966914,8.86018144 16.9966914,7.70305003 C16.9966914,6.54591862 17.9828234,5.6080569 19.1991553,5.6080569 C20.4156056,5.6080569 21.4017375,6.54591862 21.4017375,7.70305003 C21.4017375,8.86018144 20.4156056,9.79828059 19.1991553,9.79828059 Z M27.6008052,4.69192034 L27.6008052,3.63130559 L25.1121595,3.63130559 L25.1121595,11.774557 L27.6063678,11.774557 L27.6063678,7.97253688 C27.6063678,6.68980323 28.9924205,6.00029679 29.9541714,6.00029679 C29.9639948,6.00029679 29.9732265,6.00124653 29.9830499,6.00136524 L29.9830499,3.63178045 C28.9959712,3.63178045 28.0880718,4.05571769 27.6008052,4.69192034 M47.053358,4.15211563 C46.3666637,3.68223504 45.5378252,3.40610006 44.6437733,3.40610006 C42.2778615,3.40610006 40.3599225,5.32990374 40.3599225,7.70305003 C40.3599225,10.0761963 42.2778615,12 44.6437733,12 C45.5378252,12 46.3666637,11.723865 47.053358,11.2541031 L47.053358,11.774557 L49.4840099,11.774557 L49.4840099,3.63118687 L47.053358,3.63118687 L47.053358,4.15211563 Z M44.8427277,9.79828059 C43.6262774,9.79828059 42.6402638,8.86018144 42.6402638,7.70305003 C42.6402638,6.54591862 43.6262774,5.6080569 44.8427277,5.6080569 C46.059178,5.6080569 47.0451916,6.54591862 47.0451916,7.70305003 C47.0451916,8.86018144 46.059178,9.79828059 44.8427277,9.79828059 Z M52.0646172,8.88618039 C52.9071848,8.88618039 53.5903285,9.57129431 53.5903285,10.416557 C53.5903285,11.2615823 52.9071848,11.9468149 52.0646172,11.9468149 C51.2220497,11.9468149 50.5390243,11.2615823 50.5390243,10.416557 C50.5390243,9.57129431 51.2220497,8.88618039 52.0646172,8.88618039 Z" fill="#343434"></path>
            </g>
        </g>
    </g>
</svg>