<svg xmlns="http://www.w3.org/2000/svg" viewBox="0 0 120 120"><defs><style>.cls-1{fill:#ffb81c;}.cls-2{fill:none;stroke:#333332;stroke-linecap:round;stroke-linejoin:round;stroke-width:4px;}</style></defs><g id="Grey"><path class="cls-1" d="M95.74,58A17,17,0,0,0,62,61a16.52,16.52,0,0,0,.12,2"/><path class="cls-2" d="M19,56c46.12,13,82,0,82,0S97.16,81,60,81,19,56,19,56Z"/><path class="cls-2" d="M16,104C11,51,32,24,32,24S4,37,4,104"/><path class="cls-2" d="M104,104c5-53-16-80-16-80s28,13,28,80"/><line class="cls-2" x1="22" y1="104" x2="69" y2="104"/><line class="cls-2" x1="75" y1="104" x2="77" y2="104"/><line class="cls-2" x1="83" y1="104" x2="98" y2="104"/><circle class="cls-2" cx="39.5" cy="23.5" r="6.5"/><circle class="cls-2" cx="26.5" cy="17.5" r="6.5"/><path class="cls-2" d="M38,12.6C42.45,8,50.07,3.74,63,3.74c0,0-2.32,5.36-15,12.26"/><path class="cls-2" d="M48,16c5.32.61,12.65,4.82,19.73,10.33,0,0-4.46,2.32-16.73.73"/><path class="cls-2" d="M19.32,9A38.43,38.43,0,0,0,4,3S5,9.09,15,15.12"/><path class="cls-2" d="M16,22S7,23,6,34c0,0,4,0,14-7"/><path class="cls-2" d="M88,24s13,6,27,0C115,24,104,16,88,24Z"/><path class="cls-2" d="M74,3S85,9,88,24C88,24,74,22,74,3Z"/><path class="cls-2" d="M75,39A20.87,20.87,0,0,0,88,24S78,25,75,39Z"/><path class="cls-2" d="M95,16a19.93,19.93,0,0,0,2-8s-5,1-7,5"/><path class="cls-2" d="M69.87,59.76a8.62,8.62,0,0,1,7.42-9.88,9,9,0,0,1,10.45,7"/></g></svg>