<?xml version="1.0" encoding="utf-8"?>
<!-- Generator: Adobe Illustrator 24.2.1, SVG Export Plug-In . SVG Version: 6.00 Build 0)  -->
<svg version="1.1" id="_x31_6477464-d27e-4737-a950-10c8958f6274"
	 xmlns="http://www.w3.org/2000/svg" xmlns:xlink="http://www.w3.org/1999/xlink" x="0px" y="0px" width="542.4px" height="80.8px"
	 viewBox="0 0 542.4 80.8" style="enable-background:new 0 0 542.4 80.8;" xml:space="preserve">
<style type="text/css">
	.st0{clip-path:url(#SVGID_2_);fill:#04B995;}
	.st1{fill:#04B995;}
	.st2{clip-path:url(#SVGID_4_);fill:#04B995;}
	.st3{clip-path:url(#SVGID_6_);fill:#010101;}
	.st4{fill:#010101;}
	.st5{clip-path:url(#SVGID_8_);fill:#010101;}
</style>
<g>
	<g>
		<defs>
			<rect id="SVGID_1_" x="14.9" y="1.1" width="513.2" height="78.6"/>
		</defs>
		<clipPath id="SVGID_2_">
			<use xlink:href="#SVGID_1_"  style="overflow:visible;"/>
		</clipPath>
		<path class="st0" d="M465,66.5c0,0-5.9,6.3-20.7,6.3c-14.2,0-20.8-6.9-20.8-6.9v6.5c0,4,2.7,7.3,9.7,7.3H455c7,0,10-3.2,10-7.3
			V66.5z"/>
		<path class="st0" d="M465.1,14.4c0,0-5.9-6.3-20.7-6.3c-14.2,0-20.8,6.9-20.8,6.9V8.4c0-4,2.7-7.3,9.7-7.3h21.8c7,0,10,3.2,10,7.3
			V14.4z"/>
	</g>
	<polygon class="st1" points="90.8,12.6 75.8,50.8 60.6,12.6 53.1,12.6 37.8,50.8 22.8,12.6 14.9,12.6 36.9,68.3 38.7,68.3 
		56.8,23.2 74.8,68.3 76.5,68.3 98.6,12.6 	"/>
	<path class="st1" d="M125.7,44.6l-9-20.1l-8.3,20.1H125.7z M114,12.3h5.5l24.6,55.7h-8l-7.3-16.3h-23.3l-6.8,16.3h-8.1L114,12.3z"
		/>
	<polygon class="st1" points="136.8,12.6 182.6,12.6 182.6,19.7 163.5,19.7 163.5,68.1 155.6,68.1 155.6,19.7 136.9,19.7 	"/>
	<g>
		<defs>
			<rect id="SVGID_3_" x="14.9" y="1.1" width="513.2" height="78.6"/>
		</defs>
		<clipPath id="SVGID_4_">
			<use xlink:href="#SVGID_3_"  style="overflow:visible;"/>
		</clipPath>
		<path class="st2" d="M232.3,55.2V64c-5.8,3.2-12.4,4.8-19.9,4.8c-6.2,0-11.3-1.3-15.6-3.7c-4.2-2.5-7.6-5.9-10.1-10.3
			c-2.5-4.4-3.8-9-3.8-14.2c0-8.1,2.9-14.9,8.6-20.3c5.7-5.5,12.7-8.3,21-8.3c5.8,0,12.1,1.6,19.2,4.6v8.6
			c-6.4-3.7-12.6-5.5-18.8-5.5c-6.3,0-11.5,2-15.6,6c-4.1,4-6.3,9-6.3,15.1c0,6.1,2,11.1,6.2,15c4,3.9,9.2,5.8,15.6,5.8
			C219.5,61.3,226,59.3,232.3,55.2"/>
	</g>
	<polygon class="st1" points="280.7,12.6 288.5,12.6 288.5,68.1 280.7,68.1 280.7,43.9 249.9,43.9 249.9,68.1 242.1,68.1 
		242.1,12.6 249.9,12.6 249.9,36.5 280.7,36.5 	"/>
	<g>
		<defs>
			<rect id="SVGID_5_" x="14.9" y="1.1" width="513.2" height="78.6"/>
		</defs>
		<clipPath id="SVGID_6_">
			<use xlink:href="#SVGID_5_"  style="overflow:visible;"/>
		</clipPath>
		<path class="st3" d="M337.8,16.2V27c-7.3-3.2-13.1-4.9-17.3-4.9c-2.5,0-4.4,0.4-5.9,1.3c-1.4,0.9-2.2,1.9-2.2,3.3
			c0,1.1,0.5,2,1.5,3c1.1,1,3.6,2.1,7.7,3.7c4,1.6,7.3,2.9,9.7,4.2c2.4,1.3,4.5,3.1,6.4,5.4c1.7,2.3,2.7,5.4,2.7,8.9
			c0,5.2-1.9,9.2-5.8,12.3c-3.9,3-9,4.6-15.3,4.6c-6.8,0-13.4-1.8-19.8-5.4V51.6c3.7,2.4,6.9,4.3,9.7,5.4c2.8,1.2,5.9,1.7,9,1.7
			c5.4,0,8.1-1.8,8.1-5.2c0-1.2-0.6-2.2-1.6-3.3c-1.1-1.1-3.7-2.3-7.8-3.8c-4.1-1.5-7.3-2.8-9.7-4.2c-2.4-1.3-4.4-3.1-6.3-5.4
			c-1.7-2.3-2.6-5.4-2.6-9c0-4.8,1.9-8.7,5.7-11.6c3.8-2.9,8.9-4.4,15.2-4.4C325.1,11.9,331.4,13.4,337.8,16.2"/>
	</g>
	<polygon class="st4" points="403.8,12.6 403.8,68.1 390.1,68.1 390.1,45.7 362.9,45.7 362.9,68.2 349.3,68.2 349.3,12.7 
		362.9,12.7 362.9,35 390.1,35 390.1,12.6 	"/>
	<g>
		<defs>
			<rect id="SVGID_7_" x="14.9" y="1.1" width="513.2" height="78.6"/>
		</defs>
		<clipPath id="SVGID_8_">
			<use xlink:href="#SVGID_7_"  style="overflow:visible;"/>
		</clipPath>
		<path class="st5" d="M444.4,57.5c5.2,0,9.3-1.6,12.5-4.7c3.2-3.1,4.7-7.2,4.7-12.3c0-5.1-1.5-9.2-4.7-12.3
			c-3.2-3.1-7.3-4.7-12.5-4.7c-5.2,0-9.3,1.6-12.5,4.7c-3.2,3.1-4.7,7.2-4.7,12.3c0,5.1,1.5,9.1,4.7,12.3
			C435,55.9,439.2,57.5,444.4,57.5 M444.4,11.9c9.3,0,16.8,2.8,22.6,8.6c5.8,5.7,8.7,12.4,8.7,19.9c0,7.7-2.9,14.3-8.8,20
			c-5.9,5.6-13.4,8.5-22.5,8.5c-9.2,0-16.8-2.8-22.6-8.5c-5.9-5.6-8.8-12.3-8.8-20c0-7.6,2.9-14.3,8.7-19.9
			C427.5,14.7,435.1,11.9,444.4,11.9"/>
		<path class="st5" d="M499.1,22.8v12.9h6.4c5.7,0,8.6-2.1,8.6-6.4c0-2.4-0.8-4.1-2.3-5.1c-1.5-1-4.1-1.5-7.8-1.5H499.1z
			 M485.4,12.6h24.5c5.6,0,10,1.7,13.3,4.9c3.3,3.2,4.9,7.1,4.9,11.6c0,4.6-1.6,8.6-4.9,11.9c-3.3,3.3-7.7,5-13.3,5h-10.9v22.3
			h-13.7V12.6z"/>
	</g>
</g>
</svg>
