<svg id="Layer_1" data-name="Layer 1" xmlns="http://www.w3.org/2000/svg" viewBox="0 0 1417.32 629.92"><defs><style>.cls-1{fill:#fff;}.cls-2{fill:#1d1d1b;}</style></defs><rect class="cls-1" x="60.52" y="110.6" width="1297" height="402" rx="58.28"/><path class="cls-2" d="M1299.24,121.1A47.92,47.92,0,0,1,1347,168.88V454.32a47.92,47.92,0,0,1-47.78,47.78H118.8A47.93,47.93,0,0,1,71,454.32V168.88A47.93,47.93,0,0,1,118.8,121.1H1299.24m0-21H118.8A68.86,68.86,0,0,0,50,168.88V454.32A68.86,68.86,0,0,0,118.8,523.1H1299.24A68.85,68.85,0,0,0,1368,454.32V168.88a68.86,68.86,0,0,0-68.78-68.78Z"/><path class="cls-2" d="M119.58,166.82H265.24c35.65,0,52.34,3.22,64,12.49,9.35,7.25,13.15,15.72,14.92,32.84.5,6.25,1,15.52,1,22,0,12.08-1,26-2.53,33.64-2.78,16.12-16.94,28.61-35.4,31.43-9.61,1.62-17.2,2-35.15,2H119.58ZM256.89,269.17c13.91,0,14.92,0,21-1.61,12.39-3,15.68-10.07,15.68-33.24,0-28.21-6.07-34-35.65-34h-87v68.9Z"/><path class="cls-2" d="M572.49,166.82v30.42H436.19v23.17H564.65V247H436.19v23.78H574.26v30.42H385.61V166.82Z"/><path class="cls-2" d="M612.19,166.82h129c32.62,0,41,.81,51.59,5C809.69,178.5,816,190.8,816,216.18c0,25.59-5.82,38.89-19.73,45.74-9.86,4.83-21.24,6.25-50.58,6.25H663.28v33H612.19Zm125.68,68.71c21,0,27.06-3.63,27.06-16.32,0-16.12-5.06-19.75-27.06-19.75H663.28v36.07Z"/><path class="cls-2" d="M919.44,200.06h-75.1V166.82h201.54v33.24h-75.1V301.21H919.44Z"/><path class="cls-2" d="M1078.5,166.82h51.34v49.77h116.83V166.82H1298V301.21h-51.33V249.83H1129.84v51.38H1078.5Z"/><path class="cls-2" d="M290.66,405.61c-.2,19.54-.81,26.19-3.63,32.24-5.24,11.48-16.12,16.92-37.07,18.33-8.26.81-24.38,1-51.18,1-38.68,0-51.17-1.81-62.06-8.86-13.29-8.47-17.12-22.57-17.12-62.46,0-35.47,4-48.16,18.13-56.22,12.09-7,25-8.86,62.66-8.86,50.17,0,61.05,1,72.54,6.65,10.88,5.43,15.92,17.32,15.92,37.07v4.43H249.76C249,354.23,245.93,353,210.47,353c-33.45,0-39.49.81-44.53,5.24-4.84,4.43-5.84,9.88-5.84,31.63,0,32.24,3,34.66,42.31,34.66,30.42,0,34.86-.2,40.5-2.62,5.84-2.42,8.06-6.65,8.06-16.32Z"/><path class="cls-2" d="M321.9,321.79h40.9v49.77h93.09V321.79h40.9V456.18h-40.9V404.81H362.8v51.37H321.9Z"/><path class="cls-2" d="M595.92,321.79h54.8l73.54,134.39H679.54l-13.3-24H579.6l-12.9,24H520.36Zm56,82.41-29-53.59L594.31,404.2Z"/><path class="cls-2" d="M743,321.79H858.86c23.78,0,34.26,2,41.91,8.47,7.86,6.24,11.49,17.73,11.49,35.86,0,25-6,34.86-23.17,38.69,16.72,2.82,21.76,9.87,21.35,30.22v21.15h-41.5V439.46c-.2-14.51-4.23-17.53-22.57-17.13H783.71v33.85H743Zm104.57,67.7c19.75,0,23.57-2.42,23.57-15.71,0-8.67-.8-12.29-3.42-15.12-3-3.22-6.45-3.82-18.74-3.82H783.71v34.65Z"/><path class="cls-2" d="M1076.88,367.33c0-10.48-4.64-14.51-16.93-14.91h-10.27l-14.51-.2-14.91.2c-19.55,0-19.55,0-24.38,1.21-7.45,1.81-10.68,5.64-11.69,14.1-.6,3.63-1,15.92-1,24.58,0,18.14,1.82,25.39,7.46,29.22,4.63,3,10.28,4.23,21,4.43,4.43.2,4.43.2,29.61.2,26.8.2,31.84-1.21,35.26-10.07a29.2,29.2,0,0,0,.61-7.46v-3.22H1025.3v-25H1117V399c0,22.17-.8,30-3.43,37.28-4.63,12.49-14.1,18.53-31,20.35-4.23.4-16.52.6-56.22.6-30.82,0-42.71-.6-51.17-2.42-14.71-3.22-23.38-9.47-28-20.55-4-9.07-5-18.54-5-43.52,0-28.81,1.61-40.3,6.85-49.76C955,330.46,964.45,325,981.77,322.6c9.27-1.21,25.59-1.81,51.18-1.81,36.67,0,48.36.6,56.82,2.61,20.75,5.24,27.4,15.72,27.2,43.93Z"/><path class="cls-2" d="M1298.32,321.79v30.43h-108.6v23.17h102.35V402H1189.72v23.78h110v30.42H1149.42V321.79Z"/></svg>