<?xml version="1.0" encoding="utf-8"?>
<!-- Generator: Adobe Illustrator 24.3.0, SVG Export Plug-In . SVG Version: 6.00 Build 0)  -->
<svg version="1.1" id="_x31_6477464-d27e-4737-a950-10c8958f6274"
	 xmlns="http://www.w3.org/2000/svg" xmlns:xlink="http://www.w3.org/1999/xlink" x="0px" y="0px" width="542.4px" height="80.8px"
	 viewBox="0 0 542.4 80.8" style="enable-background:new 0 0 542.4 80.8;" xml:space="preserve">
<style type="text/css">
	.st0{fill:#04B995;}
	.st1{fill:#010101;}
</style>
<g id="_x36_df44b66-91a5-4950-b975-008fb4a68449">
	<path class="st0" d="M476,13.6c0,0-6.1-6.5-21.5-6.5c-14.8,0-21.6,7.1-21.6,7.1V7.5c0-4.1,2.8-7.5,10.1-7.5h22.6
		c7.3,0,10.4,3.3,10.4,7.5V13.6z"/>
	<path class="st0" d="M476,67.2c0,0-6.1,6.5-21.5,6.5c-14.8,0-21.6-7.1-21.6-7.1v6.7c0,4.1,2.8,7.5,10.1,7.5h22.6
		c7.3,0,10.4-3.3,10.4-7.5V67.2z"/>
	<path class="st0" d="M78.8,11.8h8.1L64,69h-1.8L43.5,22.7L24.7,69h-1.9L0,11.8h8.2l15.6,39.3l15.8-39.3h7.8l15.8,39.3L78.8,11.8z"
		/>
	<path class="st0" d="M104.6,11.5h5.7l25.6,57.3h-8.3L120,52H95.8l-7.1,16.8h-8.4L104.6,11.5z M116.8,44.7L107.5,24l-8.6,20.7H116.8
		z"/>
	<path class="st0" d="M129.1,11.8h47.6v7.3h-19.8v49.7h-8.2V19.1h-19.5L129.1,11.8L129.1,11.8z"/>
	<path class="st0" d="M233.4,55.6v9c-6.4,3.4-13.5,5.1-20.7,4.9c-5.6,0.2-11.2-1.2-16.2-3.8c-4.4-2.6-8-6.2-10.5-10.6
		c-2.6-4.4-3.9-9.5-3.9-14.6c-0.2-7.9,3.1-15.5,8.9-20.9c5.9-5.7,13.2-8.5,21.8-8.5c6,0,12.6,1.6,19.9,4.7v8.8
		c-6.6-3.8-13.1-5.7-19.5-5.7c-6-0.2-11.8,2.1-16.2,6.2c-4.3,4-6.6,9.6-6.5,15.5c0,6.3,2.1,11.4,6.4,15.4s9.6,6,16.2,6
		C220.3,61.8,227.4,59.6,233.4,55.6z"/>
	<path class="st0" d="M283.6,11.8h8.1v57h-8.1V44h-32v24.8h-8.1v-57h8.1v24.6h32V11.8z"/>
	<path class="st1" d="M343,15.5v11.1c-7.6-3.3-13.6-5-18-5c-2.1-0.1-4.2,0.3-6.1,1.3c-1.3,0.6-2.2,1.9-2.3,3.4
		c0,1.2,0.6,2.4,1.6,3.1c1.1,1,3.7,2.2,8,3.8c3.4,1.3,6.8,2.7,10.1,4.3c2.6,1.4,4.8,3.3,6.6,5.6c1.9,2.7,2.9,5.9,2.8,9.2
		c0.2,4.9-2.1,9.6-6,12.6c-4,3.1-9.3,4.7-15.9,4.7c-7.2,0-14.3-1.9-20.6-5.5V51.9c3.2,2.2,6.6,4,10.1,5.6c3,1.2,6.2,1.8,9.4,1.7
		c5.6,0,8.4-1.8,8.4-5.3c-0.1-1.3-0.7-2.5-1.7-3.4c-1.1-1.1-3.8-2.4-8.1-3.9c-3.5-1.1-6.9-2.6-10.1-4.3c-2.5-1.4-4.8-3.3-6.5-5.6
		c-1.9-2.7-2.8-6-2.7-9.3c-0.1-4.7,2.1-9.1,5.9-11.9c3.9-3,9.2-4.5,15.8-4.5C330.4,11.2,336.9,12.8,343,15.5z"/>
	<path class="st1" d="M411.5,11.8v57h-14.2v-23h-28.2v23.1h-14.2v-57h14.2v22.9h28.2v-23L411.5,11.8z"/>
	<path class="st1" d="M454.6,11.1c9.7,0,17.5,2.9,23.5,8.8s9,12.7,9,20.5s-3,14.7-9.1,20.6s-13.9,8.7-23.4,8.7s-17.5-2.9-23.5-8.7
		S422,48.4,422,40.4c0-7.8,3-14.7,9-20.5S444.9,11.1,454.6,11.1z M454.6,57.9c5.4,0,9.7-1.6,13-4.8s4.9-7.4,4.9-12.6
		s-1.6-9.5-4.9-12.6s-7.6-4.8-13-4.8s-9.7,1.6-13,4.8s-4.9,7.4-4.9,12.6s1.6,9.4,4.9,12.6S449.2,57.9,454.6,57.9z"/>
	<path class="st1" d="M498,11.8h25.5c5.8,0,10.4,1.7,13.8,5c3.3,3.1,5.2,7.4,5.1,11.9c0.1,4.6-1.8,9-5.1,12.2
		c-3.4,3.4-8,5.1-13.8,5.1h-11.3v22.9H498V11.8z M512.2,22.3v13.3h6.6c5.9,0,8.9-2.2,8.9-6.6c0-2.5-0.8-4.2-2.4-5.2
		s-4.3-1.5-8.1-1.5H512.2z"/>
</g>
</svg>
