<?xml version="1.0" encoding="utf-8"?>
<!-- Generator: Adobe Illustrator 24.1.2, SVG Export Plug-In . SVG Version: 6.00 Build 0)  -->
<svg version="1.1" id="Openpay_Single_Line_Logo_with_Strapline_Landscape_RGB_Full_Colour"
	 xmlns="http://www.w3.org/2000/svg" xmlns:xlink="http://www.w3.org/1999/xlink" x="0px" y="0px" viewBox="0 0 1236.3 595.3"
	 style="enable-background:new 0 0 1236.3 595.3;" xml:space="preserve">
<style type="text/css">
	.st0{fill:#FFB81C;}
	.st1{fill:#333332;}
</style>
<g>
	<path class="st0" d="M809,229.5v50.8c0,21.7-14.5,40.8-35.4,46.6v8.7h-26.1V327c-20.9-5.9-35.4-24.9-35.4-46.6v-50.8H738v50.8
		c0,12.4,10.1,22.5,22.5,22.5s22.5-10.1,22.5-22.5v-50.8H809z"/>
	<rect x="747.4" y="344.4" class="st0" width="26.1" height="26.1"/>
	<path class="st0" d="M650.7,302.8c-14.1,0-26-11.7-26-25.8c-0.1-14.2,11.3-25.9,25.6-26c0.1,0,0.3,0,0.4,0
		c14,0.1,25.4,11.1,26,25.1c0,0.3,0,0.6,0,1c0,14.2-11.5,25.8-25.7,25.8C650.9,302.8,650.8,302.8,650.7,302.8 M702.3,276.1
		c-0.4-28.6-24-51.4-52.6-50.9c-28.6,0.4-51.4,24-50.9,52.6s24,51.4,52.6,50.9c8.7-0.1,17.3-2.5,24.9-6.8v4.3h26.1V277
		C702.3,276.7,702.3,276.4,702.3,276.1"/>
	<rect x="158.6" y="344.4" class="st0" width="26.1" height="26.1"/>
	<path class="st0" d="M210.3,302.7c-14.3,0-25.9-11.7-25.8-26c0-14.3,11.7-25.9,26-25.8c14.3,0,25.9,11.7,25.8,26c0,0,0,0,0,0
		C236.3,291,224.3,302.7,210.3,302.7 M210.3,225.1c-28.5,0.1-51.6,23.2-51.7,51.7v58.9h26.1v-14c24.8,14.2,56.4,5.5,70.6-19.3
		s5.5-56.4-19.3-70.6C228.2,227.4,219.3,225,210.3,225.1"/>
	<rect x="487.7" y="344.4" class="st0" width="26.1" height="26.1"/>
	<path class="st0" d="M539.3,302.7c-14.3,0-25.9-11.7-25.8-26c0-14.3,11.7-25.9,26-25.8c14.3,0,25.9,11.7,25.8,26c0,0,0,0,0,0
		C565.3,291,553.3,302.7,539.3,302.7 M539.3,225.1c-28.5,0.1-51.6,23.2-51.6,51.7v58.9h26.1v-14c24.8,14.2,56.4,5.5,70.6-19.3
		c14.2-24.8,5.5-56.4-19.3-70.6C557.2,227.4,548.4,225,539.3,225.1"/>
	<path class="st0" d="M126,276.9c0,14.3-11.6,25.9-25.9,25.9s-25.9-11.6-25.9-25.9c0-14.3,11.6-25.9,25.9-25.9
		C114.3,251,125.9,262.6,126,276.9 M151.9,276.9c0-28.6-23.2-51.8-51.8-51.8s-51.8,23.2-51.8,51.8s23.2,51.8,51.8,51.8
		C128.7,328.6,151.8,305.5,151.9,276.9"/>
	<path class="st0" d="M429.4,225.1c-26.7,0.1-48.4,21.7-48.4,48.5V326h26v-52.5c0.4-12.4,10.7-22.2,23.2-21.8
		c11.9,0.4,21.5,9.9,21.8,21.8V326h25.9v-52.5C477.8,246.8,456.2,225.1,429.4,225.1"/>
	<path class="st0" d="M297.3,264.6l0.4-0.6c7-12.8,23.2-17.6,36-10.5c4.4,2.4,8.1,6.1,10.5,10.5l0.4,0.6H297.3z M371.2,264.3
		L371.2,264.3c-6.8-27.8-34.8-44.9-62.6-38.1s-44.9,34.8-38.1,62.6l0,0c4.5,19.8,20.3,35,40.2,38.8c14.6,2.9,29.7-0.6,41.6-9.7
		l-18.2-18.2c-12.2,7-27.7,3.3-35.4-8.5l-0.4-0.7h72.5C372,286.2,373.7,274,371.2,264.3"/>
	<path class="st1" d="M840,265.5c0,0.5,0.2,1,0.5,1.4c0.3,0.4,0.9,0.6,1.4,0.6h15.6c2.2,0.1,4.3-0.7,5.9-2.1
		c1.6-1.4,2.4-3.5,2.3-5.6c0.1-2.3-0.9-4.5-2.8-6c-2-1.6-4.4-2.4-7-2.3h-16V265.5z M864.1,239.1c0.1-2.1-0.8-4.2-2.4-5.5
		c-1.8-1.3-4.1-2-6.3-1.9h-13.5c-1.3,0-1.9,0.7-1.9,2V247h15.5c2.2,0.1,4.4-0.6,6.1-2C863.4,243.5,864.3,241.4,864.1,239.1
		 M835.1,233.1c-0.2-3,2.1-5.7,5.2-5.9c0.2,0,0.5,0,0.7,0h14.6c3.5-0.1,6.9,0.9,9.6,3.1c2.6,2.1,4,5.3,3.8,8.6c0,4.6-2.4,7.9-7.1,10
		c2.5,0.6,4.7,1.9,6.4,3.9c1.6,2,2.5,4.5,2.4,7c0.1,3.4-1.2,6.6-3.8,8.8c-2.6,2.3-6,3.5-9.5,3.3H841c-1.6,0.1-3.1-0.5-4.3-1.6
		c-1.1-1.1-1.7-2.7-1.6-4.2L835.1,233.1z"/>
	<path class="st1" d="M902.8,258.4c0,4.4-1.2,7.9-3.7,10.4c-5.4,5-13.8,5-19.2,0c-2.5-2.5-3.7-6-3.7-10.4v-15.5h4.6v15.5
		c0,3.1,0.8,5.5,2.4,7.2c3.5,3.4,9.1,3.4,12.6,0c1.6-1.7,2.4-4.1,2.4-7.2v-15.5h4.6V258.4z"/>
	<path class="st1" d="M963.4,256.5c0-4.4,1.3-7.9,3.8-10.4c5.6-5.1,14.1-5.1,19.7,0c2.5,2.5,3.8,6,3.8,10.4v15.4h-4.6v-15.4
		c0-3.1-0.8-5.5-2.5-7.2c-3.7-3.4-9.4-3.4-13.1,0c-1.7,1.7-2.5,4.1-2.5,7.2v15.4h-4.6V256.5z"/>
	<path class="st1" d="M1004.1,265c4.2,4,10.8,4,15,0c4-4.3,4-10.9,0-15.2c-4.2-4-10.8-4-15,0C1000.1,254.1,1000.1,260.7,1004.1,265
		 M1022.5,268.3c-6.2,5.7-15.6,5.7-21.8,0c-5.7-6.1-5.7-15.6,0-21.7c6.1-5.7,15.7-5.7,21.8,0
		C1028.3,252.7,1028.3,262.2,1022.5,268.3"/>
	<path class="st1" d="M1043.8,267.1l6.2-21c0.7-2.4,2.1-3.6,4.4-3.6c2.2-0.2,4.1,1.4,4.4,3.6l6.3,21c0.1,0.3,0.3,0.6,0.7,0.6
		c0.3,0,0.5-0.2,0.6-0.6l7.1-24.2h4.8l-8.2,25.7c-0.7,2.4-2.2,3.7-4.5,3.7s-3.7-1.2-4.4-3.7l-6.3-20.8c-0.1-0.4-0.3-0.6-0.7-0.6
		s-0.6,0.2-0.8,0.6l-6.1,20.8c-0.7,2.4-2.1,3.7-4.3,3.7c-2.3,0-3.9-1.2-4.6-3.7l-8.2-25.7h4.9l7.2,24.2c0.1,0.4,0.3,0.6,0.6,0.6
		C1043.4,267.7,1043.7,267.4,1043.8,267.1"/>
	<rect x="1081.9" y="265.5" class="st1" width="6.5" height="6.5"/>
	<path class="st1" d="M840,290.9v19.7h13.1c2.9,0.1,5.8-1,7.9-3c2.1-2.1,3.2-5,3.1-7.9c0.1-2.9-1-5.7-3.1-7.8c-2.1-2-5-3.1-7.9-3
		h-11.2c-0.5,0-1,0.2-1.3,0.6C840.2,289.9,840,290.4,840,290.9 M853.1,315.2H840V329h-4.9v-39.1c-0.1-3,2.3-5.6,5.3-5.7
		c0.1,0,0.2,0,0.3,0h12.3c4.2-0.2,8.4,1.4,11.5,4.2c3,2.9,4.7,6.9,4.5,11.1c0.2,4.2-1.5,8.3-4.5,11.2
		C861.5,313.8,857.3,315.3,853.1,315.2"/>
	<path class="st1" d="M895.1,322.1c3.9-4.3,3.9-10.9,0-15.2c-4.2-4-10.8-4-15,0c-4,4.3-4,10.9,0,15.2
		C884.3,326.2,890.9,326.2,895.1,322.1 M887.3,329.6c-4,0.1-7.8-1.4-10.6-4.3c-5.7-6.1-5.7-15.6,0.1-21.6c6.1-5.7,15.6-5.7,21.8-0.1
		c2.8,2.8,4.4,6.7,4.3,10.7V329h-4.4v-5.5c-1.2,1.9-2.8,3.4-4.8,4.4C891.7,329,889.5,329.6,887.3,329.6"/>
	<rect x="1177.9" y="322.5" class="st1" width="6.5" height="6.5"/>
	<path class="st1" d="M933.2,242.9v15.5c0,3.1-0.8,5.5-2.5,7.2c-3.7,3.4-9.3,3.4-12.9,0c-1.6-1.7-2.5-4.1-2.5-7.2v-15.5h-4.7v15.5
		c0,4.4,1.3,7.9,3.8,10.4c2,2,4.7,3.3,7.5,3.6v12.9h4.6v-12.9c2.9-0.3,5.5-1.6,7.5-3.6c2.5-2.5,3.8-6,3.8-10.4v-15.5H933.2z"/>
	<path class="st1" d="M933.2,299.9v15.5c0,3.1-0.8,5.5-2.5,7.2c-3.7,3.4-9.3,3.4-12.9,0c-1.6-1.7-2.5-4.1-2.5-7.2v-15.5h-4.7v15.5
		c0,4.4,1.3,7.9,3.8,10.4c2,2,4.7,3.3,7.5,3.6v12.9h4.6v-12.9c2.9-0.3,5.5-1.6,7.5-3.6c2.5-2.5,3.8-6,3.8-10.4v-15.5H933.2z"/>
	<path class="st1" d="M972.8,329.6c-3.8,0-7.5-1.1-10.7-3.3l2.5-3.7c2.8,1.9,6.3,2.8,9.7,2.4c1.8,0,3.5-0.8,4.8-2.1
		c0.6-0.8,0.9-1.9,0.7-2.9c-0.2-1.7-2.7-2.3-5.1-2.7c-2.5-0.3-4.9-1-7.2-2c-2.2-1.1-3.8-3.2-4.2-5.6c-0.4-2.6,0.5-5.2,2.3-7.1
		c4.4-4.8,13-3.6,18.5,0.2l-2.5,3.7c-4-2.7-10.1-3.7-12.7-0.9c-0.9,0.8-1.3,2.1-1.2,3.3c0.2,1,0.9,1.9,1.9,2.4
		c1.9,0.8,3.9,1.4,5.9,1.6c2.6,0.5,8.1,1.4,8.8,6.5c0.4,2.2-0.2,4.5-1.6,6.3c-2,2.3-4.9,3.7-7.9,3.8
		C974.1,329.5,973.5,329.6,972.8,329.6z"/>
	<path class="st1" d="M1013.4,311.8V329h-4.6v-17.2c0.1-2.1-0.6-4.2-2-5.8c-1.3-1.4-3.2-2.2-5.1-2.1c-1.9-0.1-3.8,0.7-5.2,2.1
		c-1.4,1.6-2.1,3.7-2,5.8V329h-4.6v-17.2c-0.2-3.3,1-6.6,3.3-9c2.2-2.2,5.2-3.4,8.3-3.4c4.4,0,7.6,1.7,9.6,5.2
		c2-3.4,5.2-5.2,9.7-5.2c3.1-0.1,6.1,1.1,8.3,3.4c2.2,2.4,3.4,5.7,3.3,9V329h-4.6v-17.2c0.1-2.1-0.6-4.2-2-5.8
		c-2.9-2.8-7.5-2.8-10.3,0C1014,307.6,1013.3,309.7,1013.4,311.8"/>
	<path class="st1" d="M1061.1,322.1c3.9-4.3,3.9-10.9,0-15.2c-4.2-4-10.8-4-15,0c-4,4.3-4,10.9,0,15.2
		C1050.2,326.2,1056.9,326.2,1061.1,322.1 M1053.2,329.6c-4,0.1-7.8-1.4-10.6-4.3c-5.8-6.2-5.5-15.9,0.7-21.8
		c5.9-5.6,15.2-5.5,21.1,0.1c2.8,2.8,4.4,6.7,4.3,10.7V329h-4.4v-5.5c-1.2,1.9-2.8,3.4-4.8,4.4
		C1057.6,329,1055.4,329.6,1053.2,329.6"/>
	<path class="st1" d="M1089.7,300h2.6v4.5h-2.6c-2.7-0.1-5.4,0.9-7.3,2.7c-1.9,2-3,4.7-2.8,7.5V329h-4.5v-14.3c0-4.7,1.3-8.4,4-10.9
		S1085.2,300,1089.7,300"/>
	<path class="st1" d="M1108.7,289.7V300h12v4.2h-12v14.6c-0.1,1.7,0.4,3.4,1.4,4.7c0.9,1,2.5,1.6,4.7,1.6c2,0,4-0.2,6-0.5v4.4
		c-2.2,0.3-4.4,0.5-6.6,0.5c-6.7,0-10-3.5-10-10.4v-14.9h-7.6V300h5.3c1.1,0.1,2.1-0.6,2.2-1.7c0-0.1,0-0.3,0-0.4v-8.1"/>
	<path class="st1" d="M1174.5,300h2.7v4.5h-2.7c-2.7-0.1-5.4,0.9-7.3,2.7c-1.9,2-3,4.7-2.8,7.5V329h-4.6v-14.3c0-4.7,1.3-8.4,4-10.9
		S1170,300,1174.5,300"/>
	<path class="st1" d="M1145.3,324.2c-1.7,0.8-3.7,1.3-5.6,1.3c-2.7,0.1-5.3-0.8-7.3-2.5c-2-1.7-3-3.5-3-5.4c0-1,0.6-1.5,1.8-1.5
		h22.6c0.2-0.9,0.3-1.9,0.3-2.9c0.1-3.7-1.3-7.3-4-9.8c-2.8-2.6-6.5-4-10.3-3.8c-4.1-0.1-8,1.4-10.9,4.2c-2.9,2.9-4.5,6.8-4.3,10.9
		c-0.4,8,5.8,14.7,13.7,15.1c0.5,0,0.9,0,1.4,0c3.1,0.1,6.1-0.7,8.8-2.3c0.5-0.3,1.1-0.7,1.6-1.1l-2.4-3.5
		C1146.9,323.3,1146.1,323.8,1145.3,324.2z M1132.6,305.8c2.1-1.6,4.6-2.4,7.2-2.4c2.5-0.1,5,0.7,6.9,2.4c1.6,1.2,2.6,3.1,2.7,5.1
		c0,0.8-0.4,1.2-1.3,1.2h-18.9C1129.5,309.7,1130.7,307.4,1132.6,305.8L1132.6,305.8z"/>
</g>
</svg>
