<svg xmlns="http://www.w3.org/2000/svg" viewBox="0 0 120 120"><defs><style>.cls-1{fill:#ffb81c;}.cls-2{fill:#333332;}.cls-3{fill:#fff;}</style></defs><g id="Grey"><ellipse class="cls-1" cx="49.96" cy="79.51" rx="42.5" ry="15.5"/><path class="cls-2" d="M43.46,111a2,2,0,0,1-1.42-.58l-3-3a2,2,0,0,1,2.83-2.83l3,3a2,2,0,0,1,0,2.83A2,2,0,0,1,43.46,111Z"/><path class="cls-2" d="M27.71,107a2,2,0,0,1-1.42-.58l-2-2a2,2,0,1,1,2.83-2.83l2,2a2,2,0,0,1,0,2.83A2,2,0,0,1,27.71,107Z"/><path class="cls-2" d="M70.71,107a2,2,0,0,1-1.42-.58l-2-2a2,2,0,0,1,2.83-2.83l2,2a2,2,0,0,1,0,2.83A2,2,0,0,1,70.71,107Z"/><path class="cls-2" d="M58.21,110.51a2,2,0,0,1-1.42-.58l-3-3a2,2,0,0,1,2.83-2.83l3,3a2,2,0,0,1,0,2.83A2,2,0,0,1,58.21,110.51Z"/><path class="cls-2" d="M49.82,100.46c-26.71,0-47.64-9.1-47.64-20.72C2.18,69.79,17,61.66,39.1,59.52c3.5-.34,7.1-.51,10.72-.51,26.71,0,47.64,9.11,47.64,20.73S76.53,100.46,49.82,100.46Zm0-37.45c-3.49,0-7,.17-10.34.49-19,1.84-33.3,8.82-33.3,16.24,0,8.07,17.54,16.72,43.64,16.72s43.64-8.65,43.64-16.72S75.92,63,49.82,63Z"/><ellipse class="cls-3" cx="48.54" cy="79.15" rx="15.32" ry="5.27"/><path class="cls-2" d="M48.54,86.42c-8.34,0-17.32-2.28-17.32-7.27s9-7.27,17.32-7.27,17.32,2.28,17.32,7.27S56.88,86.42,48.54,86.42ZM35.22,79.15c.34.93,4.81,3.27,13.32,3.27S61.62,80,61.87,79.12c-.25-.85-4.73-3.24-13.33-3.24S35.56,78.22,35.22,79.15Z"/><path class="cls-2" d="M49.82,118c-18,0-30.47-3.54-38.2-10.82-6.35-6-9.44-14.59-9.44-26.28a2,2,0,0,1,4,0c0,29.17,22.06,33.1,43.64,33.1,38.45,0,43.64-16.73,43.64-33.1a2,2,0,0,1,4,0C97.46,106.57,82.77,118,49.82,118Z"/><path class="cls-2" d="M29,89.51a2,2,0,0,1-1.42-.58l-12-12a2,2,0,1,1,2.83-2.83l12,12a2,2,0,0,1,0,2.83A2,2,0,0,1,29,89.51Z"/><path class="cls-2" d="M18.91,87.44a2,2,0,0,1-1.42-.59l-6.93-6.93a2,2,0,1,1,2.82-2.83L20.32,84a2,2,0,0,1-1.41,3.42Z"/><path class="cls-2" d="M22.57,63.83l-1.1,0c-6.92-.23-12-2.77-14.78-7.32a2,2,0,0,1-.21-1.58,2,2,0,0,1,1-1.24C30.37,41.94,84,14.46,107,2.22A2,2,0,0,1,108.09,2c.21,0,5.13.36,7.76,4.09,1.7,2.42,2,5.58.92,9.36a2,2,0,0,1-1,1.22L76.31,37.57a2,2,0,0,1-1.57.13c-.15-.05-4.41-1.26-8,4C58.46,53.54,37.71,63.83,22.57,63.83ZM11.44,56.14c2.21,2.29,5.62,3.52,10.17,3.67,13.82.45,34.16-9.41,41.82-20.33,4.27-6.27,9.56-6.14,11.65-5.79l38.05-20.16c.5-2.17.32-3.89-.54-5.13a6.62,6.62,0,0,0-4.25-2.35C85.66,18.07,35.17,44,11.44,56.14ZM114.85,14.89h0Z"/><path class="cls-2" d="M82,34.15a2.09,2.09,0,0,1-.55-.08,2,2,0,0,1-1.37-2.48c.74-2.56.62-4.55-.34-5.93C78.24,23.5,75,23.24,75,23.24a2,2,0,0,1-1.86-2.13,2,2,0,0,1,2.12-1.86c.2,0,5.13.36,7.75,4.09,1.71,2.42,2,5.57.92,9.36A2,2,0,0,1,82,34.15Z"/><path class="cls-2" d="M23.26,56.17a2,2,0,0,1-.93-3.76L57.82,33.69a2,2,0,1,1,1.87,3.54L24.19,55.94A1.94,1.94,0,0,1,23.26,56.17Z"/></g></svg>