<svg id="Layer_1" data-name="Layer 1" xmlns="http://www.w3.org/2000/svg" viewBox="0 0 1417.32 496.06"><defs><style>.cls-1{fill:#1d1d1b;}</style></defs><path class="cls-1" d="M105.26,389.86a29.26,29.26,0,0,0-.61,5.33c0,2.74,1.67,4.56,4.41,5.17s11.26,1.06,19,1.06c12.78,0,25.72-.3,29.52-.76,9.28-1.06,12.93-4.26,12.93-11.1,0-2.89-1.37-5-3.65-5.78-3-1.07-3-1.07-19.17-1.22h-28c-13.85,0-22.37-.76-27.24-2.28-7.6-2.44-11.41-7.61-11.41-15.68,0-11.71,4.72-26.47,10.5-32.86,8.37-9.28,21.15-11.72,60.87-11.72,30.28,0,37.73.61,45.19,3.5,6.24,2.43,9.43,7.46,9.43,15.06a50.47,50.47,0,0,1-2,13.24h-30a22,22,0,0,0,.45-3.5c0-5.48-3.65-6.54-21.45-6.54-12.63,0-26.17.45-31,.91-6.24.61-10,4.57-10,10.35a5.51,5.51,0,0,0,2.28,4.72c2.59,1.67,2.74,1.67,15.06,2h28.76c1.83,0,7,.16,15.06.46,11.26.46,14.92.91,19.33,3,6.08,2.59,9,7.61,9,15.37,0,11.57-4.27,25.41-10.05,32.26-8.21,9.74-21,12.17-63.29,12.17-26.78,0-35-.45-42.91-2.13-9.44-2.13-13.7-7-13.7-15.37,0-4.56.46-7.76,2.44-15.67Z"/><path class="cls-1" d="M228.51,320.78H259.4l-16.28,76.38H313l-5.33,25.11H206.9Z"/><path class="cls-1" d="M334.11,320.78H365L343.39,422.27H312.51Z"/><path class="cls-1" d="M380.07,320.78h77.6c19.63,0,24.34.61,30.12,3.8,6.09,3.35,9.13,9.13,9.13,17.2,0,7.76-2.89,21.76-6.54,32.26-4.11,11.41-12.32,19.32-22.52,21.6-6.24,1.22-11.87,1.68-23.73,1.68H394.52l-5.32,24.95H358.46Zm64.51,51.89c9,0,12.63-1.07,15.52-4.42,2.44-3,4.26-9.12,4.26-14.6,0-3.65-1.21-5.79-3.95-7-2.44-1.07-3.65-1.22-10.05-1.22H405.48l-5.79,27.24Z"/><path class="cls-1" d="M526,389.86a30.2,30.2,0,0,0-.61,5.33c0,2.74,1.68,4.56,4.42,5.17,2.89.61,11.25,1.06,19,1.06,12.78,0,25.71-.3,29.51-.76,9.29-1.06,12.94-4.26,12.94-11.1,0-2.89-1.37-5-3.65-5.78-3-1.07-3-1.07-19.18-1.22h-28c-13.85,0-22.37-.76-27.24-2.28-7.61-2.44-11.41-7.61-11.41-15.68,0-11.71,4.72-26.47,10.5-32.86,8.37-9.28,21.15-11.72,60.86-11.72,30.28,0,37.74.61,45.19,3.5,6.24,2.43,9.44,7.46,9.44,15.06a50.47,50.47,0,0,1-2,13.24h-30a21.16,21.16,0,0,0,.46-3.5c0-5.48-3.65-6.54-21.45-6.54-12.63,0-26.18.45-31.05.91-6.23.61-10,4.57-10,10.35a5.54,5.54,0,0,0,2.28,4.72c2.59,1.67,2.74,1.67,15.07,2h28.76c1.82,0,7,.16,15.06.46,11.26.46,14.91.91,19.32,3,6.09,2.59,9,7.61,9,15.37,0,11.57-4.26,25.41-10,32.26-8.22,9.74-21,12.17-63.3,12.17-26.78,0-35-.45-42.91-2.13-9.43-2.13-13.69-7-13.69-15.37,0-4.56.45-7.76,2.43-15.67Z"/><path class="cls-1" d="M677.55,345.89H632.36l5.32-25.11H759l-5.33,25.11H708.44l-16.28,76.38H661.27Z"/><path class="cls-1" d="M763.37,320.78h87.49c26.93,0,34.54,4.41,34.54,19.93,0,12-3.35,25.87-7.76,32.72-3.95,5.93-8.06,8.37-17.19,10.35,4.56.6,5.93.76,8.06,1.52a7.77,7.77,0,0,1,5.18,7.6c0,2.29-.16,3.66-2,13.39l-3.5,16H837l2.58-12.63a25.86,25.86,0,0,0,.76-5.48c0-3.34-1.37-5.47-4.26-6.54-1.67-.61-4.72-.91-10.65-.91H778l-5.48,25.56H741.76Zm68.17,51.13c9,0,12.47-.61,15.52-2.59,2.43-1.67,3.5-3.8,4.71-8.83a48,48,0,0,0,1.07-7.76,5.94,5.94,0,0,0-4.57-6.23c-2.43-.76-3.34-.76-10-.76H788.78l-5.63,26.17Z"/><path class="cls-1" d="M1018.09,320.78l-4.87,23H931.36l-3.81,17.5H1005l-4.26,20.08H923.29l-3.8,18h83.08l-4.87,23H884.19L905.8,320.78Z"/><path class="cls-1" d="M1077,320.78h41.38l33.94,101.49h-33.78l-6.24-18.11h-65.43l-13.54,18.11h-35ZM1106,383l-13.39-40.47L1062.37,383Z"/><path class="cls-1" d="M1176.65,320.78h49l22.67,67.41,51.13-67.41h48.69l-21.61,101.49H1296.4l18.26-78.36L1253,422.27h-24.8l-27.54-78.36-15.83,78.36H1155Z"/><path class="cls-1" d="M631.11,260.1c.69-.4,1.06-.59,1.4-.81l18.5-12.2,27.55-18.21q12.62-8.35,25.22-16.75a1.93,1.93,0,0,1,2.17,0c2.09,1.46,4.26,2.81,6.39,4.22l40.6,26.82q12.27,8.12,24.51,16.25a8.78,8.78,0,0,0,1.09.52c-.09-.42-.1-.61-.16-.78q-4-11.26-7.94-22.53-6.09-17.19-12.21-34.38c-2.42-6.82-4.77-13.66-7.24-20.47a1.75,1.75,0,0,1,.7-2.05c3-2,6-4,9-6l63.44-42.21c.35-.23.67-.53,1.29-1h-2q-44.38,0-88.77,0a1.79,1.79,0,0,1-2.07-1.41c-4.14-11.89-8.34-23.76-12.51-35.65q-7.22-20.62-14.42-41.27c-.21-.59-.51-1.15-.86-1.95C700.33,63,696,75.42,691.59,87.85Q684.38,108.4,677.22,129a2,2,0,0,1-2.23,1.58q-44.32-.06-88.64,0h-2.1c.75.55,1.11.84,1.49,1.09q36.18,24.07,72.37,48.13a1.43,1.43,0,0,1,.7,2c-1.44,3.94-2.79,7.91-4.19,11.87q-6.92,19.51-13.84,39c-2.4,6.77-4.83,13.54-7.23,20.31C632.75,255.22,632,257.5,631.11,260.1Z"/><path class="cls-1" d="M631.11,259.82c.89-2.61,1.64-4.88,2.44-7.13,2.4-6.78,4.83-13.54,7.23-20.32q6.93-19.5,13.84-39c1.4-4,2.75-7.94,4.19-11.88a1.42,1.42,0,0,0-.7-2q-36.2-24-72.37-48.13c-.38-.26-.74-.55-1.49-1.1h2.1q44.32,0,88.64,0a2,2,0,0,0,2.23-1.58q7.14-20.59,14.37-41.14C696,75.14,700.33,62.72,704.82,50c.35.81.65,1.37.86,2q7.22,20.63,14.42,41.27c4.17,11.88,8.37,23.75,12.51,35.65a1.8,1.8,0,0,0,2.07,1.41q44.39,0,88.77,0h2c-.62.49-.94.78-1.29,1l-63.44,42.21c-3,2-6,4.05-9,6a1.74,1.74,0,0,0-.7,2.05c2.47,6.8,4.82,13.65,7.24,20.47q6.09,17.19,12.21,34.38,4,11.25,7.94,22.52c.06.18.07.37.16.79a8.78,8.78,0,0,1-1.09-.52q-12.26-8.12-24.51-16.25l-40.6-26.83c-2.13-1.4-4.3-2.75-6.39-4.21a1.9,1.9,0,0,0-2.17,0q-12.59,8.42-25.22,16.74Q664.79,237.71,651,246.8L632.51,259C632.17,259.23,631.8,259.42,631.11,259.82Z"/></svg>